<svg xmlns="http://www.w3.org/2000/svg" xmlns:xlink="http://www.w3.org/1999/xlink" version="1.1" x="0px" y="0px" viewBox="0 0 100 100" enable-background="new 0 0 100 100" xml:space="preserve"><path d="M47.121,95.611c0.727,0.721,1.676,1.084,2.629,1.082c0.949-0.002,1.896-0.366,2.621-1.091l10.48-10.519  c1.445-1.45,1.443-3.802-0.01-5.248c-0.727-0.723-1.676-1.082-2.625-1.08c-0.949,0-1.902,0.363-2.621,1.088l-4.156,4.17  l-0.021-13.306l-0.016-8.649L53.381,48.75l4.174,4.157c0.719,0.722,1.674,1.085,2.621,1.082c0.951-0.002,1.9-0.364,2.621-1.094  c1.449-1.448,1.445-3.801-0.01-5.244L52.273,37.166c-0.723-0.721-1.677-1.083-2.626-1.082c-0.953,0.002-1.901,0.367-2.624,1.09  L36.54,47.695c-1.443,1.449-1.44,3.8,0.011,5.245c0.724,0.723,1.679,1.086,2.628,1.085c0.946-0.002,1.899-0.365,2.62-1.093  l4.154-4.169l0.024,13.309l0.015,8.649l0.021,13.306l-4.167-4.152c-0.727-0.727-1.677-1.084-2.627-1.083  c-0.949,0.002-1.897,0.363-2.623,1.091c-1.447,1.45-1.443,3.803,0.013,5.245L47.121,95.611z"></path><path d="M58,70h23.951C91.95,70,100,61.41,100,51.411v-0.12c0-5.136-2.113-9.932-5.793-13.315  c-1.225-13.922-12.891-24.877-27.126-24.877c-3.232,0-6.382,0.57-9.378,1.671c-3.078-2.169-6.772-3.379-10.635-3.379  c-6.416,0-12.255,3.382-15.587,8.583c-5.703,0.566-10.74,3.74-13.745,8.457C7.727,29.858,0.008,38.487,0.008,48.884  c0,9.112,6.095,17.472,14.833,20.04C16.627,69.486,18.476,70,20.334,70H42l0,0l-0.013-7l0,0c0.001,0-0.001,0,0,0H20.334  c-1.183,0-2.319-0.535-3.388-0.879c-5.604-1.615-9.706-6.942-9.706-13.065c0-7.417,6.013-13.515,13.429-13.515  c0.596,0,1.179,0.009,1.755,0.084c1.246-4.866,5.646-8.49,10.9-8.49c0.954,0,1.875,0.121,2.759,0.343  c1.108-5.057,5.609-8.852,10.998-8.852c3.842,0,7.23,1.924,9.263,4.862c3.117-1.995,6.819-3.158,10.793-3.158  c11.079,0,20.059,8.98,20.059,20.057c0,0.437-0.02,0.869-0.047,1.298c3.459,1.846,5.814,5.478,5.85,9.665c0-0.035,0-0.064,0-0.095  v0.187c0-0.032,0,0.281,0,0.252C92.948,57.756,88.025,63,81.951,63H57.99c0,0-0.001,0,0,0l0,0L58,70L58,70z"></path></svg>